<?xml version="1.0" encoding="UTF-8" standalone="no"?>
<!-- Created with Inkscape (http://www.inkscape.org/) -->

<svg
   xmlns:dc="http://purl.org/dc/elements/1.1/"
   xmlns:cc="http://creativecommons.org/ns#"
   xmlns:rdf="http://www.w3.org/1999/02/22-rdf-syntax-ns#"
   xmlns:svg="http://www.w3.org/2000/svg"
   xmlns="http://www.w3.org/2000/svg"
   xmlns:xlink="http://www.w3.org/1999/xlink"
   xmlns:sodipodi="http://sodipodi.sourceforge.net/DTD/sodipodi-0.dtd"
   xmlns:inkscape="http://www.inkscape.org/namespaces/inkscape"
   width="618"
   height="179"
   id="svg2"
   version="1.1"
   inkscape:version="0.47 r22583">
  <g
     inkscape:label="Layer 1"
     inkscape:groupmode="layer"
     id="layer1"
     transform="translate(-411.72065,-120.21087)">
    <path
       style="fill:#b1005c;fill-rule:nonzero;stroke:none"
       d="m 411.72065,143.31166 c 0,-13.70777 8.16784,-20.68595 19.47852,-20.68595 11.31069,0 19.49628,6.97818 19.49628,20.68595 l 0,52.87789 53.64141,-63.70916 c 7.70618,-8.66501 12.50035,-9.85468 18.28886,-9.85468 8.66501,0 19.47852,8.41643 19.47852,18.75052 0,5.78852 -3.6045,11.31069 -7.68842,15.64319 l -46.4324,51.91906 43.16526,49.84158 c 6.00159,6.49876 10.81351,11.55927 10.81351,18.76828 0,12.5181 -9.62384,19.24769 -20.43735,19.24769 -10.35185,0 -17.80945,-9.37526 -24.05962,-16.35343 l -46.76977,-55.86093 0,51.52842 c 0,13.70777 -8.18559,20.68594 -19.49628,20.68594 -11.31068,0 -19.47852,-6.97817 -19.47852,-20.68594 l 0,-132.79843"
       id="path4921" />
    <path
       id="path4923"
       d="m 593.86349,276.11009 c 0,13.70777 -8.16784,20.68594 -19.47852,20.68594 -11.31068,0 -19.49628,-6.97817 -19.49628,-20.68594 l 0,-132.79843 c 0,-13.70777 8.1856,-20.68595 19.49628,-20.68595 11.31068,0 19.47852,6.97818 19.47852,20.68595 l 0,132.79843"
       style="fill:#b1005c;fill-rule:nonzero;stroke:none" />
    <path
       style="fill:#b1005c;fill-rule:nonzero;stroke:none"
       d="m 607.81985,143.31166 c 0,-13.70777 8.18559,-20.68595 19.47852,-20.68595 10.35185,0 13.95635,4.56334 26.95387,20.91678 l 64.70351,81.07469 0.47941,0 0,-81.30552 c 0,-13.70777 8.1856,-20.68595 19.49628,-20.68595 11.31069,0 19.47853,6.97818 19.47853,20.68595 l 0,132.79843 c 0,13.70777 -8.16784,20.68594 -19.47853,20.68594 -10.35185,0 -14.18718,-4.56333 -26.93611,-20.93453 l -64.72126,-81.07469 -0.47942,0 0,81.32328 c 0,13.70777 -8.1856,20.68594 -19.49628,20.68594 -11.29293,0 -19.47852,-6.97817 -19.47852,-20.68594 l 0,-132.79843"
       id="path4927" />
    <path
       style="fill:#b1005c;fill-rule:nonzero;stroke:none"
       d="m 809.90287,209.702 c 0,27.20246 12.26952,53.41057 42.33073,53.41057 30.07896,0 42.34847,-26.20811 42.34847,-53.41057 0,-27.18471 -12.26951,-53.41058 -42.34847,-53.41058 -30.06121,0 -42.33073,26.22587 -42.33073,53.41058 m 126.54826,0 c 0,54.3694 -33.45263,89.50887 -84.21753,89.50887 -50.74715,0 -84.19979,-35.13947 -84.19979,-89.50887 0,-54.36941 33.45264,-89.49113 84.19979,-89.49113 50.7649,0 84.21753,35.12172 84.21753,89.49113"
       id="path4929" />
    <path
       id="path4931"
       d="m 1029.7066,280.10523 c 0,8.71828 -7.067,15.76748 -15.7853,15.76748 l -53.49933,0 c -8.71828,0 -15.78524,-7.0492 -15.78524,-15.76748 l 0,-53.4816 c 0,-8.71828 7.06696,-15.78524 15.78524,-15.78524 l 53.49933,0 c 8.7183,0 15.7853,7.06696 15.7853,15.78524 l 0,53.4816"
       style="fill:#a0a0a4;fill-rule:nonzero;stroke:none" />
    <path
       id="path4933"
       d="m 1029.7066,191.8748 c 0,8.71828 -7.067,15.76748 -15.7853,15.76748 l -53.49933,0 c -8.71828,0 -15.78524,-7.0492 -15.78524,-15.76748 l 0,-53.4816 c 0,-8.71828 7.06696,-15.78524 15.78524,-15.78524 l 53.49933,0 c 8.7183,0 15.7853,7.06696 15.7853,15.78524 l 0,53.4816"
       style="fill:#a0a0a4;fill-rule:nonzero;stroke:none" />
    <path
       id="path4935"
       d="m 972.90456,262.42008 17.56086,0 0,9.62385 c 2.16625,0 6.55203,0 6.80061,0 0,-7.65292 0,-15.57217 0,-23.22508 l -6.80061,0 0,7.65291 -9.10892,0 c 0,-0.0888 4.88295,-13.6545 7.97252,-22.65688 l -6.80061,0 c -0.0888,0.0888 -7.97253,23.81103 -9.62385,28.6052"
       style="fill:#ffffff;fill-rule:evenodd;stroke:none" />
    <path
       id="path4937"
       d="m 1015.8212,238.23617 c -5.966,-6.78286 -15.3235,-11.93215 -22.79889,-12.18074 -13.03304,-0.40839 -23.1363,5.89505 -28.07252,14.91519 -2.05971,3.7288 -3.30264,7.84823 -3.39143,12.25176 -0.0177,1.72235 0,3.71104 0.31962,5.23807 0.8878,4.0129 2.73445,7.24452 4.65211,10.10327 3.24938,4.86519 8.43419,7.7772 12.73118,10.31633 l 0.0888,0.0178 c -5.29134,-0.0888 -11.73683,-3.87085 -16.4067,-9.17994 -4.59885,-5.23807 -7.75945,-12.23401 -7.75945,-19.08789 0,-4.65212 1.08312,-8.82482 3.23162,-12.96201 1.11864,-2.16625 2.36157,-4.27924 4.03065,-6.01934 6.07262,-6.33896 14.38251,-10.778 24.41474,-10.88454 15.55439,-0.1598 25.90629,8.34541 28.97809,17.47208 l -0.018,0"
       style="fill:#ffffff;fill-rule:nonzero;stroke:none" />
    <path
       id="path4939"
       d="m 959.37436,270.30382 c 6.16139,6.55203 14.80865,11.23966 22.51483,11.66581 18.78601,1.02986 31.00231,-12.60689 31.28641,-27.53983 0.035,-1.70459 -0.018,-3.69328 -0.3552,-5.20256 -2.3438,-10.51165 -9.9612,-16.05158 -17.29447,-20.20653 -0.0178,0 -0.0178,-0.0178 -0.0355,-0.0178 l 0.0533,0 c 12.64242,2.98304 23.97082,14.20494 23.97082,27.85944 0,16.30017 -14.5423,30.14998 -32.15641,30.14998 -12.25176,0 -23.54469,-6.39222 -27.98373,-16.70856"
       style="fill:#ffffff;fill-rule:nonzero;stroke:none" />
    <path
       id="path4941"
       d="m 1017.1174,143.98639 c -2.1485,0 -3.4802,1.38498 -4.2792,3.08958 l -9.7837,26.22587 -9.69483,-25.85299 c -0.0178,-0.0355 -0.0355,-0.071 -0.0533,-0.1243 -0.46166,-1.456 -1.65133,-2.64567 -3.40919,-2.89425 -0.14205,-0.0355 -0.2841,-0.0355 -0.4439,-0.0533 -0.071,0 -0.14205,-0.0178 -0.21308,-0.0178 l -0.0533,0 c -0.0355,0 -0.071,0 -0.10653,0 -0.0355,0 -0.071,0 -0.0888,0 l -31.39292,0 c -2.7167,0 -4.27924,2.1485 -4.27924,4.35026 0,2.1485 1.26069,4.35027 4.27924,4.35027 l 9.00238,0 0,31.65926 c 0,3.14284 2.0242,4.91846 4.72314,4.91846 2.7167,0 4.7409,-1.77562 4.7409,-4.91846 l 0,-31.65926 9.32199,0 13.01528,32.91995 c 0.79903,2.0242 1.88217,3.65777 4.65207,3.65777 2.77,0 3.8531,-1.63357 4.6699,-3.65777 l 13.8143,-35.12172 c 0.3019,-0.81678 0.4262,-1.456 0.4262,-2.32606 0,-2.66342 -2.3261,-4.54558 -4.8475,-4.54558"
       style="fill:#ffffff;fill-rule:nonzero;stroke:none" />
  </g>
</svg>
